# xmcd
#
# Track frame offsets:
#	150
#	9752
#	21427
#	30994
#	40861
#	49490
#	62606
#	70872
#	82858
#	94705
#	106754
#	121824
#	136000
#	145524
#
# Disc length: 2089 seconds
#
# Revision: 0
# Processed by: cddbd v1.5.1PL2 Copyright (c) Steve Scherf et al.
# Submitted via: dBpowerAMP V4.0
#
DISCID=a108270e
DTITLE=Michael Bublè and Frank Sinatra - The Kings of Swing
DYEAR=2005
DGENRE=Swing
TTITLE0=Tell Him He's Yours (Michael Bublè)
TTITLE1=You Do Something to Me (Frank Sinatra)
TTITLE2=Me and Mrs You (Michael Bublè)
TTITLE3=I've got The World On A String (Frank Sinatra)
TTITLE4=That's How It Goes (Michael Bublè)
TTITLE5=I Get I Kick Out Of You (Frank Sinatra)
TTITLE6=Guess I'm Falling For You (Michael Bublè)
TTITLE7=A Foggy Day (Frank Sinatra)
TTITLE8=Peroxide Swing (Michael Bublè)
TTITLE9=Lover (Frank Sinatra)
TTITLE10=Love at First Sight (Michael Bublè)
TTITLE11=Don't Worry But Me (Frank Sinatra)
TTITLE12=Anyone To Love (Michael Bublè)
TTITLE13=My Funny Valentine (Frank Sinatra)
EXTD=
EXTT0=
EXTT1=
EXTT2=
EXTT3=
EXTT4=
EXTT5=
EXTT6=
EXTT7=
EXTT8=
EXTT9=
EXTT10=
EXTT11=
EXTT12=
EXTT13=
PLAYORDER=
